# xmcd
# 
# Track frame offsets:
#     150
#     26507
#     51791
#     94701
#     120139
#     148173
#     182230
# 
# Disc length: 2598
# 
# Revision: 0
# Processed by: cddbd v1.5.2PL0 Copyright (c) Steve Scherf et al.
# Submitted via: fre:ac v1.0.17
# 
DISCID=560a2407
DTITLE=Tulku Lobsang - Music of the Heart
DYEAR=0
DGENRE=
TTITLE0=Refuge Prayer
TTITLE1=Medicine Buddha Mantra
TTITLE2=Joy of the Elephant
TTITLE3=Calling the Lama
TTITLE4=Lama Melting into the Heart
TTITLE5=Single-pointed Prayer
TTITLE6=Life is One Day
EXTD=
EXTT0=
EXTT1=
EXTT2=
EXTT3=
EXTT4=
EXTT5=
EXTT6=
PLAYORDER=
